# Blender v3.1.2 OBJ File: ''
# www.blender.org
mtllib Gold_Coin.mtl
o Coin_Cylinder
v -0.080822 0.000000 -0.461859
v 0.080820 0.000000 -0.461859
v 0.080820 -0.176748 -0.426703
v -0.080822 -0.176748 -0.426703
v 0.080820 -0.326587 -0.326582
v -0.080822 -0.326587 -0.326582
v 0.080820 -0.426706 -0.176743
v -0.080822 -0.426706 -0.176743
v 0.080820 -0.461863 0.000004
v -0.080822 -0.461863 0.000004
v 0.080820 -0.426706 0.176750
v -0.080822 -0.426706 0.176750
v 0.080820 -0.326587 0.326590
v -0.080822 -0.326587 0.326590
v 0.080820 -0.176748 0.426709
v -0.080822 -0.176748 0.426709
v 0.080820 0.000000 0.461866
v -0.080822 0.000000 0.461866
v 0.080820 0.176747 0.426709
v -0.080822 0.176747 0.426709
v 0.080820 0.326586 0.326591
v -0.080822 0.326586 0.326591
v 0.080820 0.426705 0.176750
v -0.080822 0.426705 0.176750
v 0.080820 0.461862 0.000004
v -0.080822 0.461862 0.000004
v 0.080820 0.426705 -0.176744
v -0.080822 0.426705 -0.176744
v 0.080820 0.326586 -0.326582
v -0.080822 0.326586 -0.326582
v 0.080820 -0.306539 0.126976
v 0.080820 -0.331795 0.000004
v 0.038702 -0.331795 0.000004
v 0.038702 -0.306539 0.126976
v 0.080820 0.176747 -0.426702
v -0.080822 0.176747 -0.426702
v -0.080822 -0.234615 0.234618
v -0.080822 -0.126973 0.306542
v -0.038704 -0.126973 0.306542
v -0.038704 -0.234615 0.234618
v 0.080820 0.000000 -0.331791
v 0.080820 -0.126973 -0.306534
v 0.080820 0.126972 -0.306534
v 0.080820 0.234614 -0.234611
v 0.080820 0.306538 -0.126968
v 0.080820 0.331795 0.000004
v 0.080820 0.306538 0.126976
v 0.080820 0.234614 0.234618
v 0.080820 0.126972 0.306542
v 0.080820 0.000000 0.331799
v 0.080820 -0.126973 0.306542
v 0.080820 -0.234615 0.234618
v 0.080820 -0.306539 -0.126968
v 0.080820 -0.234615 -0.234612
v -0.080822 -0.126973 -0.306534
v -0.080822 0.000000 -0.331791
v -0.080822 -0.234615 -0.234612
v -0.080822 -0.306539 -0.126968
v -0.080822 -0.331795 0.000004
v -0.080822 -0.306539 0.126976
v -0.080822 0.000000 0.331799
v -0.080822 0.126972 0.306542
v -0.080822 0.234614 0.234618
v -0.080822 0.306538 0.126976
v -0.080822 0.331795 0.000004
v -0.080822 0.306538 -0.126968
v -0.080822 0.234614 -0.234611
v -0.080822 0.126972 -0.306536
v 0.038702 -0.126973 -0.306534
v 0.038702 0.000000 -0.331791
v 0.038702 0.126972 -0.306534
v 0.038702 0.234614 -0.234611
v 0.038702 0.306538 -0.126968
v 0.038702 0.331795 0.000004
v 0.038702 0.306538 0.126976
v 0.038702 0.234614 0.234618
v 0.038702 0.126972 0.306542
v 0.038702 0.000000 0.331799
v 0.038702 -0.126973 0.306542
v 0.038702 -0.234615 0.234618
v 0.038702 -0.306539 -0.126968
v 0.038702 -0.234615 -0.234612
v -0.038704 0.000000 -0.331791
v -0.038704 -0.126973 -0.306534
v -0.038704 -0.234615 -0.234612
v -0.038704 -0.306539 -0.126968
v -0.038704 -0.331795 0.000004
v -0.038704 -0.306539 0.126976
v -0.038704 0.000000 0.331799
v -0.038704 0.126972 0.306542
v -0.038704 0.234614 0.234618
v -0.038704 0.306538 0.126976
v -0.038704 0.331795 0.000004
v -0.038704 0.306538 -0.126968
v -0.038704 0.234614 -0.234611
v -0.038704 0.126972 -0.306536
vt 0.183594 0.575312
vt 0.183594 0.575312
vt 0.183594 0.575312
vt 0.183594 0.575312
vt 0.183594 0.575312
vt 0.183594 0.575312
vt 0.183594 0.575312
vt 0.183594 0.575312
vt 0.183594 0.575312
vt 0.183594 0.575312
vt 0.183594 0.575312
vt 0.183594 0.575312
vt 0.183594 0.575312
vt 0.183594 0.575312
vt 0.183594 0.575312
vt 0.183594 0.575312
vt 0.183594 0.575312
vt 0.183594 0.575312
vt 0.183594 0.575312
vt 0.183594 0.575312
vt 0.183594 0.575312
vt 0.183594 0.575312
vt 0.183594 0.575312
vt 0.183594 0.575312
vt 0.183594 0.575312
vt 0.183594 0.575312
vt 0.183594 0.575312
vt 0.183594 0.575312
vt 0.183594 0.575312
vt 0.183594 0.575312
vt 0.183594 0.575312
vt 0.183594 0.575313
vt 0.183594 0.575313
vt 0.183594 0.575312
vt 0.183594 0.575312
vt 0.183594 0.575312
vt 0.183594 0.575313
vt 0.183594 0.575313
vt 0.183594 0.575313
vt 0.183594 0.575313
vt 0.183594 0.575313
vt 0.183594 0.575312
vt 0.183594 0.575313
vt 0.183594 0.575313
vt 0.183594 0.575312
vt 0.183594 0.575312
vt 0.183594 0.575312
vt 0.183594 0.575313
vt 0.183594 0.575312
vt 0.183594 0.575312
vt 0.183594 0.575312
vt 0.183594 0.575312
vt 0.183594 0.575312
vt 0.183594 0.575312
vt 0.183594 0.575313
vt 0.183594 0.575312
vt 0.183594 0.575313
vt 0.183594 0.575313
vt 0.183594 0.575312
vt 0.183594 0.575313
vt 0.183594 0.575313
vt 0.183594 0.575313
vt 0.183594 0.575312
vt 0.183594 0.575313
vt 0.183594 0.575312
vt 0.183594 0.575313
vt 0.183594 0.575312
vt 0.183594 0.575312
vt 0.183594 0.575312
vt 0.183594 0.575313
vt 0.183594 0.575313
vt 0.183594 0.575313
vt 0.183594 0.575312
vt 0.183594 0.575312
vt 0.183594 0.575312
vt 0.183594 0.575313
vt 0.183594 0.575312
vt 0.183594 0.575312
vt 0.183594 0.575312
vt 0.183594 0.575312
vt 0.183594 0.575312
vt 0.183594 0.575312
vt 0.183594 0.575312
vt 0.183594 0.575313
vt 0.183594 0.575313
vt 0.183594 0.575313
vt 0.183594 0.575312
vt 0.183594 0.575313
vt 0.183594 0.575313
vt 0.183594 0.575313
vt 0.183594 0.575312
vt 0.183594 0.575313
vt 0.183594 0.575312
vt 0.183594 0.575313
vt 0.183594 0.575312
vt 0.183594 0.575312
vn 0.0000 -0.1951 -0.9808
vn 0.0000 -0.5556 -0.8315
vn 0.0000 -0.8315 -0.5556
vn 0.0000 -0.9808 -0.1951
vn 0.0000 -0.9808 0.1951
vn 0.0000 -0.8315 0.5556
vn 0.0000 -0.5556 0.8315
vn 0.0000 -0.1951 0.9808
vn 0.0000 0.1951 0.9808
vn 0.0000 0.5556 0.8315
vn 0.0000 0.8315 0.5556
vn 0.0000 0.9808 0.1951
vn 0.0000 0.9808 -0.1951
vn 0.0000 0.8315 -0.5556
vn 0.0000 0.5556 -0.8315
vn 0.0000 0.1951 -0.9808
vn 1.0000 0.0000 0.0000
vn -1.0000 -0.0000 0.0000
usemtl Material.002
s 1
f 1/1/1 2/2/1 3/3/1 4/4/1
f 4/4/2 3/3/2 5/5/2 6/6/2
f 6/6/3 5/5/3 7/7/3 8/8/3
f 8/8/4 7/7/4 9/9/4 10/10/4
f 10/10/5 9/9/5 11/11/5 12/12/5
f 12/12/6 11/11/6 13/13/6 14/14/6
f 14/14/7 13/13/7 15/15/7 16/16/7
f 16/16/8 15/15/8 17/17/8 18/18/8
f 18/18/9 17/17/9 19/19/9 20/20/9
f 20/20/10 19/19/10 21/21/10 22/22/10
f 22/22/11 21/21/11 23/23/11 24/24/11
f 24/24/12 23/23/12 25/25/12 26/26/12
f 26/26/13 25/25/13 27/27/13 28/28/13
f 28/28/14 27/27/14 29/29/14 30/30/14
f 31/31/13 32/32/13 33/33/13 34/34/13
f 30/30/15 29/29/15 35/35/15 36/36/15
f 36/36/16 35/35/16 2/2/16 1/1/16
f 37/37/15 38/38/15 39/39/15 40/40/15
f 3/3/17 2/2/17 41/41/17 42/42/17
f 2/2/17 35/35/17 43/43/17 41/41/17
f 35/35/17 29/29/17 44/44/17 43/43/17
f 29/29/17 27/27/17 45/45/17 44/44/17
f 27/27/17 25/25/17 46/46/17 45/45/17
f 25/25/17 23/23/17 47/47/17 46/46/17
f 23/23/17 21/21/17 48/48/17 47/47/17
f 21/21/17 19/19/17 49/49/17 48/48/17
f 19/19/17 17/17/17 50/50/17 49/49/17
f 17/17/17 15/15/17 51/51/17 50/50/17
f 15/15/17 13/13/17 52/52/17 51/51/17
f 13/13/17 11/11/17 31/31/17 52/52/17
f 11/11/17 9/9/17 32/32/17 31/31/17
f 9/9/17 7/7/17 53/53/17 32/32/17
f 7/7/17 5/5/17 54/54/17 53/53/17
f 5/5/17 3/3/17 42/42/17 54/54/17
f 1/1/18 4/4/18 55/55/18 56/56/18
f 4/4/18 6/6/18 57/57/18 55/55/18
f 6/6/18 8/8/18 58/58/18 57/57/18
f 8/8/18 10/10/18 59/59/18 58/58/18
f 10/10/18 12/12/18 60/60/18 59/59/18
f 12/12/18 14/14/18 37/37/18 60/60/18
f 14/14/18 16/16/18 38/38/18 37/37/18
f 16/16/18 18/18/18 61/61/18 38/38/18
f 18/18/18 20/20/18 62/62/18 61/61/18
f 20/20/18 22/22/18 63/63/18 62/62/18
f 22/22/18 24/24/18 64/64/18 63/63/18
f 24/24/18 26/26/18 65/65/18 64/64/18
f 26/26/18 28/28/18 66/66/18 65/65/18
f 28/28/18 30/30/18 67/67/18 66/66/18
f 30/30/18 36/36/18 68/68/18 67/67/18
f 36/36/18 1/1/18 56/56/18 68/68/18
f 69/69/17 70/70/17 71/71/17 72/72/17 73/73/17 74/74/17 75/75/17 76/76/17 77/77/17 78/78/17 79/79/17 80/80/17 34/34/17 33/33/17 81/81/17 82/82/17
f 83/83/18 84/84/18 85/85/18 86/86/18 87/87/18 88/88/18 40/40/18 39/39/18 89/89/18 90/90/18 91/91/18 92/92/18 93/93/18 94/94/18 95/95/18 96/96/18
f 38/38/16 61/61/16 89/89/16 39/39/16
f 42/42/9 41/41/9 70/70/9 69/69/9
f 32/32/12 53/53/12 81/81/12 33/33/12
f 61/61/1 62/62/1 90/90/1 89/89/1
f 54/54/10 42/42/10 69/69/10 82/82/10
f 53/53/11 54/54/11 82/82/11 81/81/11
f 62/62/2 63/63/2 91/91/2 90/90/2
f 41/41/8 43/43/8 71/71/8 70/70/8
f 63/63/3 64/64/3 92/92/3 91/91/3
f 43/43/7 44/44/7 72/72/7 71/71/7
f 64/64/4 65/65/4 93/93/4 92/92/4
f 44/44/6 45/45/6 73/73/6 72/72/6
f 65/65/5 66/66/5 94/94/5 93/93/5
f 45/45/5 46/46/5 74/74/5 73/73/5
f 56/56/9 55/55/9 84/84/9 83/83/9
f 66/66/6 67/67/6 95/95/6 94/94/6
f 46/46/4 47/47/4 75/75/4 74/74/4
f 68/68/8 56/56/8 83/83/8 96/96/8
f 67/67/7 68/68/7 96/96/7 95/95/7
f 47/47/3 48/48/3 76/76/3 75/75/3
f 55/55/10 57/57/10 85/85/10 84/84/10
f 48/48/2 49/49/2 77/77/2 76/76/2
f 57/57/11 58/58/11 86/86/11 85/85/11
f 49/49/1 50/50/1 78/78/1 77/77/1
f 58/58/12 59/59/12 87/87/12 86/86/12
f 50/50/16 51/51/16 79/79/16 78/78/16
f 59/59/13 60/60/13 88/88/13 87/87/13
f 51/51/15 52/52/15 80/80/15 79/79/15
f 60/60/14 37/37/14 40/40/14 88/88/14
f 52/52/14 31/31/14 34/34/14 80/80/14
